<svg width="120" height="120" fill="none" xmlns="http://www.w3.org/2000/svg"><circle cx="60" cy="60" r="56.5" stroke="#fff" stroke-width="7"/><path d="M98 39.1a31.158 31.158 0 01-8.844 2.389c3.18-1.876 5.623-4.845 6.769-8.378a31.195 31.195 0 01-9.773 3.67A15.464 15.464 0 0074.923 32c-8.499 0-15.39 6.779-15.39 15.145 0 1.186.14 2.342.403 3.453-12.79-.633-24.123-6.664-31.716-15.83a14.91 14.91 0 00-2.081 7.618c0 5.254 2.712 9.892 6.845 12.614a15.559 15.559 0 01-6.974-1.9v.19c0 7.342 5.308 13.46 12.34 14.858a15.627 15.627 0 01-6.95.253c1.964 6.013 7.645 10.403 14.373 10.524-5.26 4.063-11.895 6.48-19.108 6.48-1.245 0-2.467-.07-3.665-.213C29.804 89.497 37.894 92 46.586 92c28.302 0 43.78-23.08 43.78-43.094 0-.656-.017-1.318-.04-1.962A31.013 31.013 0 0098 39.1z" fill="#fff"/></svg>