<svg width="120" height="120" fill="none" xmlns="http://www.w3.org/2000/svg"><circle cx="60" cy="60" r="56.5" stroke="#fff" stroke-width="7"/><path d="M94.505 78.003c-2.808-5.053-10.04-11.125-13.027-13.767-.817-.724-.905-1.975-.16-2.775 5.698-6.123 10.255-13.16 11.824-17.411.692-1.878-.74-3.862-2.76-3.862H84.52c-1.933 0-3.064.693-3.603 1.798-4.736 9.705-8.799 13.905-11.643 16.36-1.592 1.374-4.075.235-4.075-1.857V43.552c0-1.793-1.465-3.243-3.273-3.243l-10.712-.121c-1.349 0-2.12 1.526-1.31 2.596l1.769 2.54a5.053 5.053 0 011.025 3.048l-.01 11.434c0 1.99-2.41 2.961-3.842 1.567-4.842-4.715-9.043-14.345-10.556-18.95a3.262 3.262 0 00-3.102-2.236l-5.776-.014c-2.167 0-3.752 2.055-3.163 4.124 5.279 18.526 16.108 36.151 35.408 38.062 1.902.188 3.542-1.343 3.542-3.239v-6.01c0-1.722 1.352-3.204 3.09-3.248l.182-.001c5.105 0 10.822 7.43 12.822 10.905.575 1 1.65 1.609 2.813 1.609h7.77c2.267 0 3.722-2.405 2.63-4.372z" fill="#fff"/></svg>