<svg width="120" height="120" viewBox="0 0 120 120" fill="none" xmlns="http://www.w3.org/2000/svg">
<circle cx="60" cy="60" r="56.5" stroke="white" stroke-width="7"/>
<path d="M98 39.1008C95.2352 40.3092 92.2717 41.1206 89.1562 41.4888C92.336 39.6129 94.7793 36.6437 95.9249 33.1106C92.9556 34.8426 89.653 36.1028 86.1517 36.7818C83.346 33.8356 79.3479 32 74.9231 32C66.4241 32 59.5326 38.7786 59.5326 47.1453C59.5326 48.3307 59.6729 49.4873 59.9359 50.5979C47.1466 49.9649 35.8127 43.9344 28.2198 34.7678C26.8929 37.012 26.1389 39.6129 26.1389 42.3865C26.1389 47.6402 28.8511 52.2781 32.9836 54.9999C30.4585 54.9193 28.0853 54.2346 26.0103 53.101C26.0103 53.1643 26.0103 53.2276 26.0103 53.2909C26.0103 60.6334 31.3177 66.7502 38.3495 68.1485C37.0636 68.4937 35.7017 68.6779 34.2988 68.6779C33.3051 68.6779 32.3407 68.5858 31.3996 68.4017C33.3636 74.4149 39.0451 78.8054 45.773 78.9263C40.5123 82.9888 33.878 85.4056 26.665 85.4056C25.4199 85.4056 24.1983 85.3365 23 85.1927C29.8038 89.4969 37.8936 92 46.5855 92C74.888 92 90.3661 68.9195 90.3661 48.9061C90.3661 48.2501 90.3486 47.5884 90.3252 46.9439C93.3297 44.8091 95.9366 42.1391 98 39.1008Z" fill="white"/>
</svg>
