<svg width="120" height="120" viewBox="0 0 120 120" fill="none" xmlns="http://www.w3.org/2000/svg">
<circle cx="60" cy="60" r="56.5" stroke="white" stroke-width="7"/>
<path d="M94.5047 78.0031C91.6969 72.95 84.4641 66.8781 81.4781 64.2359C80.6609 63.5125 80.5734 62.2609 81.3172 61.4609C87.0156 55.3375 91.5734 48.3016 93.1422 44.05C93.8344 42.1719 92.4016 40.1875 90.3828 40.1875H84.5188C82.5859 40.1875 81.4547 40.8812 80.9156 41.9859C76.1797 51.6906 72.1172 55.8906 69.2734 58.3453C67.6812 59.7203 65.1984 58.5812 65.1984 56.4891C65.1984 52.4578 65.1984 47.2469 65.1984 43.5516C65.1984 41.7594 63.7328 40.3094 61.925 40.3094L51.2125 40.1875C49.8641 40.1875 49.0938 41.7141 49.9031 42.7844L51.6719 45.3234C52.3375 46.2031 52.6969 47.2734 52.6969 48.3719L52.6875 59.8062C52.6875 61.7953 50.2766 62.7672 48.8453 61.3734C44.0031 56.6578 39.8016 47.0281 38.2891 42.4234C37.8516 41.0906 36.6031 40.1906 35.1875 40.1875L29.4109 40.1734C27.2438 40.1734 25.6594 42.2281 26.2484 44.2969C31.5266 62.8234 42.3562 80.4484 61.6562 82.3594C63.5578 82.5469 65.1984 81.0156 65.1984 79.1203V73.1109C65.1984 71.3875 66.55 69.9062 68.2875 69.8625C68.3484 69.8609 68.4094 69.8609 68.4703 69.8609C73.575 69.8609 79.2922 77.2906 81.2922 80.7656C81.8672 81.7656 82.9422 82.375 84.1047 82.375H91.875C94.1422 82.375 95.5969 79.9703 94.5047 78.0031Z" fill="white"/>
</svg>
